# xmcd CD database file
#
# Track frame offsets:
#	150
#	4431
#	28642
#	30718
#	45223
#	70638
#	80204
#	105383
#	106960
#	133731
#	161245
#	164861
#	184313
#	186456
#	219345
#	238965
#	243225
#	261492
#	292826
#	309574
#
# Disc length: 4329 seconds
#
# Revision: 6
# Processed by: cddbd v1.5.2PL0 Copyright (c) Steve Scherf et al.
# Submitted via: CDex 1.70beta2
#
DISCID=2610e714
DTITLE=Various Artist - Śpiewnik Komedy
DYEAR=1995
DGENRE=Jazz
TTITLE0=Wojciech Młynarski - Zapowiedź 1
TTITLE1=Ewa Bem - W teatrzyku twej młodości (live) (Komeda/Młynarski)
TTITLE2=Wojciech Młynarski - Zapowiedź 2
TTITLE3=Ryszard Rynkowski - Nim wstanie dzień (live) (Komeda/Osiecka)
TTITLE4=Anna Serafińska - Ja nie chcę spać (Piosenka Holly) (live) (Komeda/Osiecka)
TTITLE5=Wojciech Młynarski - Zapowiedź 3
TTITLE6=Ewa Bem and Andrzej Dąbrowski - Z lat zielonych walc szalony (live) (Komeda/Młynarski)
TTITLE7=Wojciech Młynarski - Zapowiedź 4
TTITLE8=Anna Frankowska - Bez jutra nie da się żyć (live) (Komeda/Młynarski)
TTITLE9=Krzysztof Komeda - Szara kolęda (instr) (live) (Komeda)
TTITLE10=Wojciech Młynarski - Zapowiedź 5
TTITLE11=Ryszard Rynkowski - Ulica Długa (live) (Sojka/Młynarski)
TTITLE12=Wojciech Młynarski - Zapowiedź 6
TTITLE13=Iza Zając - Rosemary's Baby Theme (live) (Komeda/Młynarski)
TTITLE14=Marek Bałata - Samotne wyspy serc (live) (Komeda/Młynarski)
TTITLE15=Wojciech Młynarski/ Zapowiedź 7
TTITLE16=Krzysztof Komeda - Ballada o Kalinie (live) (Komeda/Młynarski)
TTITLE17=Marek Bałata - Każdy szafę ma (Dwaj ludzie z szafą) (live) (Komeda/Młynarski)
TTITLE18=Wojciech Młynarski - Szara kolęda (live) (Komeda/Młynarski)
TTITLE19=Wojciech Młynarski - To jest Warszawa (live) (Komeda/Młynarski)
EXTD=YEAR: 1995
EXTT0=
EXTT1=
EXTT2=
EXTT3=
EXTT4=
EXTT5=
EXTT6=
EXTT7=
EXTT8=
EXTT9=
EXTT10=
EXTT11=
EXTT12=
EXTT13=
EXTT14=
EXTT15=
EXTT16=
EXTT17=
EXTT18=
EXTT19=
PLAYORDER=
